<svg width="568" height="110" viewBox="0 0 568 110" fill="none" xmlns="http://www.w3.org/2000/svg">
<g clip-path="url(#clip0_244_78)">
<path d="M454.338 104.681C454.338 106.44 454.338 107.905 454.338 109.513C446.398 109.513 438.71 109.513 430.807 109.513C430.807 81.9783 430.807 54.479 430.807 26.5566C438.468 26.2288 446.224 25.8968 454.215 25.5549C454.215 41.2717 454.215 56.7848 454.215 72.5932C457.306 71.6869 458.728 69.4371 460.016 67.166C463.577 60.8857 467.11 54.5869 470.495 48.211C471.469 46.3779 472.625 45.7939 474.653 45.8263C482.173 45.9466 489.697 45.8742 497.945 45.8742C491.243 56.2093 484.777 66.1794 478.38 76.0447C484.746 86.6643 491.437 97.8242 498.379 109.404C497.04 109.519 496.219 109.648 495.399 109.65C488.759 109.666 482.116 109.557 475.48 109.716C473.251 109.77 472.2 108.988 471.246 107.029C467.48 99.2963 463.59 91.6209 459.563 84.0214C458.511 82.0372 456.798 80.4039 455.388 78.6095C455.038 78.7593 454.688 78.9092 454.338 79.0591C454.338 87.5014 454.338 95.9437 454.338 104.681Z" fill="#353535"/>
<path d="M543.65 103.064C536.457 112.826 524.696 112.765 516.775 109.175C509.497 105.876 505.45 98.3807 506.275 90.1842C507.051 82.4793 511.958 76.6086 519.994 75.0427C526.476 73.7796 533.14 73.4418 539.727 72.7285C540.69 72.6242 541.674 72.714 542.853 72.714C542.853 70.3302 542.848 68.1826 542.855 66.035C542.863 63.4867 541.764 62.2442 539.06 62.4393C531.354 62.9952 523.642 63.4495 515.933 63.9525C515.151 64.0035 514.373 64.1138 513.088 64.25C512.537 58.9164 511.995 53.6714 511.424 48.1524C524.525 45.8109 537.365 43.0957 550.505 45.3921C559.813 47.019 565.107 53.0922 566.128 62.6726C566.495 66.1136 566.675 69.589 566.694 73.05C566.76 85.1305 566.72 97.2116 566.72 109.482C560.324 109.482 553.927 109.482 547.281 109.482C546.611 106.951 545.908 104.296 545.136 101.379C544.608 101.961 544.185 102.427 543.65 103.064ZM529.422 92.5931C531.52 96.3249 536.841 96.9754 542.772 94.2641C542.772 90.9219 542.772 87.6148 542.772 84.2359C541.779 84.2359 540.994 84.2151 540.21 84.24C538.135 84.3058 536.058 84.3426 533.988 84.4799C530.301 84.7244 529.352 85.7233 529.214 89.4368C529.181 90.3221 529.279 91.2121 529.422 92.5931Z" fill="#353535"/>
<path d="M350.634 45.2114C352.367 40.9576 354.074 36.9528 355.603 32.8812C356.207 31.2716 357.061 30.5501 358.817 30.4942C363.749 30.3372 368.676 30.02 373.876 29.752C373.876 35.1475 373.876 40.3528 373.876 45.8285C378.838 45.8285 383.545 45.8285 388.442 45.8285C388.442 50.4156 388.442 54.7327 388.442 59.3271C383.784 59.3271 379.083 59.3271 374.259 59.3271C374.12 60.0202 373.951 60.4721 373.951 60.924C373.949 69.8475 373.927 78.7714 373.994 87.6946C374.029 92.3048 374.48 92.7319 379.142 92.9349C381.499 93.0376 383.864 92.9528 386.468 92.9528C386.822 96.1575 387.235 99.1881 387.465 102.232C387.613 104.191 387.493 106.171 387.493 108.436C378.821 110.686 370.081 112.227 361.211 109.614C353.783 107.426 350.393 102.311 350.31 93.5315C350.215 83.4189 350.286 73.3047 350.285 63.1912C350.285 62.1028 350.285 61.0143 350.285 59.6024C346.889 59.6024 343.576 59.6024 340.125 59.6024C340.125 55.2634 340.125 51.2463 340.125 47.1793C343.618 46.5937 347.077 46.0136 350.634 45.2114Z" fill="#353535"/>
<path d="M288.277 65.8476C283.933 66.0727 279.884 66.2902 275.472 66.5272C275.472 80.9682 275.472 95.166 275.472 109.508C267.41 109.508 259.725 109.508 251.881 109.508C251.881 88.3314 251.881 67.2624 251.881 46.0403C258.417 46.0403 264.823 46.0403 271.512 46.0403C272.384 49.1301 273.286 52.3301 274.291 55.8936C274.955 55.2615 275.457 54.7487 275.995 54.2773C278.888 51.7413 281.648 49.0222 284.729 46.7383C288.129 44.2181 292.106 43.9944 296.071 45.2845C296.842 45.5352 297.903 46.6823 297.862 47.3562C297.485 53.4687 296.893 59.5679 296.35 65.84C293.476 65.84 291.024 65.84 288.277 65.8476Z" fill="#353535"/>
<path d="M288.277 65.8476C283.933 66.0727 279.884 66.2902 275.472 66.5272C275.472 80.9682 275.472 95.166 275.472 109.508C267.41 109.508 259.725 109.508 251.881 109.508C251.881 88.3314 251.881 67.2624 251.881 46.0403C258.417 46.0403 264.823 46.0403 271.512 46.0403C272.384 49.1301 273.286 52.3301 274.291 55.8936C274.955 55.2615 275.457 54.7487 275.995 54.2773C278.888 51.7413 281.648 49.0222 284.729 46.7383C288.129 44.2181 292.106 43.9944 296.071 45.2845C296.842 45.5352 297.903 46.6823 297.862 47.3562C297.485 53.4687 296.893 59.5679 296.35 65.84C293.476 65.84 291.024 65.84 288.277 65.8476Z" fill="#353535"/>
<path d="M330.903 78.5168C330.903 88.9916 330.903 99.169 330.903 109.51C322.947 109.51 315.262 109.51 307.398 109.51C307.398 88.4225 307.398 67.3714 307.398 46.1018C315.035 46.1018 322.708 46.1018 330.903 46.1018C330.903 56.7428 330.903 67.481 330.903 78.5168Z" fill="#353535"/>
<path d="M397.847 67.8071C397.847 60.4009 397.847 53.2923 397.847 46.0376C405.84 46.0376 413.525 46.0376 421.395 46.0376C421.395 67.1477 421.395 88.2083 421.395 109.464C413.653 109.464 405.9 109.464 397.847 109.464C397.847 95.6112 397.847 81.8579 397.847 67.8071Z" fill="#353535"/>
<path d="M315.504 16.9391C318.065 16.8893 320.532 16.4823 322.735 17.0691C327.792 18.4163 331.018 23.4764 330.432 28.3602C329.842 33.2793 325.62 37.3975 320.554 37.9948C315.136 38.6336 309.638 35.312 308.066 30.45C306.539 25.7305 308.58 20.6692 313.127 17.9913C313.802 17.5937 314.567 17.3488 315.504 16.9391Z" fill="#353535"/>
<path d="M412.806 16.7455C417.703 18.5088 420.815 21.5046 421.088 26.7163C421.34 31.5138 419.012 34.9042 414.811 36.8968C410.277 39.0477 405.928 38.3941 402.09 35.1494C398.763 32.3374 397.494 28.682 398.718 24.495C400.028 20.0144 403.241 17.3795 407.834 16.6396C409.367 16.3925 410.983 16.6575 412.806 16.7455Z" fill="#353535"/>
<path d="M201.368 50.5398C205.175 65.2511 208.889 79.5997 212.635 94.0731C213.582 97.7358 211.884 101.572 208.841 102.642C203.417 104.549 198.066 106.43 192.68 108.323C189.637 109.393 186.402 107.291 185.454 103.628C177.762 73.9051 170.076 44.2064 162.325 14.2594C161.377 10.5967 163.075 6.76041 166.118 5.69077C171.41 3.83074 176.757 1.95097 182.28 0.00951343C185.323 -1.06012 188.558 1.04181 189.506 4.7045C193.402 19.7601 197.338 34.9669 201.368 50.5398Z" fill="#353535"/>
<path d="M239.392 61.3152C234.117 75.4857 228.972 89.3067 223.783 103.248C222.477 106.756 219.044 108.434 216.114 106.996C211.188 104.578 206.325 102.191 201.432 99.7884C198.503 98.3503 197.187 94.3406 198.493 90.8325C209.149 62.2029 219.797 33.5965 230.535 4.75075C231.84 1.24264 235.274 -0.435504 238.203 1.00259C243.012 3.36322 247.871 5.74893 252.885 8.21046C255.814 9.64855 257.131 13.6584 255.825 17.1665C250.427 31.668 244.975 46.3152 239.392 61.3152Z" fill="#353535"/>
<path d="M223.294 99.7718C223.292 100.775 223.289 101.769 223.286 102.759C223.275 106.603 220.701 109.727 217.536 109.737C208.747 109.764 200.116 109.79 191.398 109.817C188.234 109.826 185.678 106.718 185.689 102.874C185.695 100.733 185.702 98.5898 185.708 96.4428C185.719 92.5987 188.293 89.4746 191.457 89.4649C199.995 89.4389 208.62 89.4126 217.595 89.3852C220.759 89.3755 223.316 92.4839 223.304 96.328C223.301 97.4673 223.298 98.6144 223.294 99.7718Z" fill="#353535"/>
</g>
<path d="M80.8873 109.3C70.3999 111.73 61.6596 107.8 55.9333 98.0021C48.8507 85.883 41.9038 73.6842 34.926 61.504C23.9444 42.3348 12.9835 23.1537 2.02411 3.97173C1.36032 2.8099 0.786758 1.59653 0 0.0763331C14.3887 0.0763331 28.3056 -0.152179 42.2091 0.181544C48.3228 0.328288 52.4757 4.26929 55.4462 9.49872C63.5158 23.705 71.6548 37.8718 79.7625 52.0565C84.3304 60.0482 88.9469 68.0127 93.4417 76.0452C101.18 89.8734 96.0081 103.782 80.8873 109.3Z" fill="#10B981"/>
<path d="M119.519 42.8147C107.566 45.6758 96.7663 40.1687 93.0163 29.5106C89.1652 18.5655 93.5748 7.04671 103.655 2.28548C106.001 1.17737 108.691 0.27148 111.243 0.216922C122.872 -0.031692 134.508 0.0562194 146.142 0.0241325C147.399 0.0206648 148.655 0.023668 150.549 0.023668C149.872 1.4269 149.461 2.42836 148.929 3.36065C143.507 12.8545 138.032 22.3183 132.643 31.8304C129.679 37.0612 125.507 40.7899 119.519 42.8147Z" fill="#FFC727"/>
<defs>
<clipPath id="clip0_244_78">
<rect width="410.143" height="110" fill="white" transform="translate(156.892)"/>
</clipPath>
</defs>
</svg>
